<mxfile host="Electron" modified="2024-05-23T16:51:09.555Z" agent="Mozilla/5.0 (Windows NT 10.0; WOW64) AppleWebKit/537.36 (KHTML, like Gecko) draw.io/24.4.0 Chrome/120.0.6099.109 Electron/28.1.0 Safari/537.36" etag="W1iYeQ3l9rqkWe5CPKj6" version="24.4.0" type="device">
  <diagram name="Страница — 1" id="GgVQBmn6HAZ-2be5XLY2">
    <mxGraphModel dx="1562" dy="916" grid="1" gridSize="10" guides="1" tooltips="1" connect="1" arrows="1" fold="1" page="1" pageScale="1" pageWidth="827" pageHeight="1169" math="0" shadow="0">
      <root>
        <mxCell id="0" />
        <mxCell id="1" parent="0" />
        <mxCell id="YYEzJ4jG1MICTZC7Yan9-1" value="K1" style="swimlane;whiteSpace=wrap;html=1;" vertex="1" parent="1">
          <mxGeometry x="170" y="410" width="100" height="150" as="geometry" />
        </mxCell>
        <mxCell id="YYEzJ4jG1MICTZC7Yan9-2" value="Значение&lt;font style=&quot;&quot; color=&quot;#000000&quot;&gt; =&amp;nbsp; ...&lt;/font&gt;" style="text;html=1;align=left;verticalAlign=middle;whiteSpace=wrap;rounded=0;fontStyle=1;fontColor=#CC0066;" vertex="1" parent="YYEzJ4jG1MICTZC7Yan9-1">
          <mxGeometry x="10" y="30" width="90" height="30" as="geometry" />
        </mxCell>
        <mxCell id="YYEzJ4jG1MICTZC7Yan9-3" value="Метки&lt;font style=&quot;&quot; color=&quot;#000000&quot;&gt; =&amp;nbsp; [&lt;br&gt;&amp;nbsp; &amp;nbsp;#K2=&lt;/font&gt;&lt;font color=&quot;#ff0000&quot;&gt;1&lt;/font&gt;&lt;font style=&quot;&quot; color=&quot;#000000&quot;&gt;,&lt;br&gt;&lt;/font&gt;&lt;font style=&quot;&quot; color=&quot;#000000&quot;&gt;&amp;nbsp; &amp;nbsp;#K3&lt;/font&gt;&lt;span style=&quot;color: rgb(0, 0, 0);&quot;&gt;=&lt;/span&gt;&lt;font color=&quot;#ff0000&quot;&gt;1&lt;/font&gt;&lt;font style=&quot;&quot; color=&quot;#000000&quot;&gt;,&lt;br&gt;&amp;nbsp; &amp;nbsp;#K4&lt;/font&gt;&lt;span style=&quot;color: rgb(0, 0, 0);&quot;&gt;=&lt;/span&gt;&lt;font color=&quot;#ff0000&quot;&gt;1&lt;/font&gt;&lt;font style=&quot;&quot; color=&quot;#000000&quot;&gt;,&lt;/font&gt;&lt;div&gt;&lt;font style=&quot;&quot; color=&quot;#000000&quot;&gt;&amp;nbsp; &amp;nbsp;#K5&lt;/font&gt;&lt;span style=&quot;background-color: initial;&quot;&gt;&lt;font color=&quot;#000000&quot;&gt;=&lt;/font&gt;&lt;font color=&quot;#ff0000&quot;&gt;1&lt;/font&gt;&lt;br&gt;&lt;/span&gt;&lt;span style=&quot;color: rgb(0, 0, 0); background-color: initial;&quot;&gt;]&lt;/span&gt;&lt;/div&gt;" style="text;html=1;align=left;verticalAlign=middle;whiteSpace=wrap;rounded=0;fontStyle=1;fontColor=#CC0066;" vertex="1" parent="YYEzJ4jG1MICTZC7Yan9-1">
          <mxGeometry x="10" y="50" width="90" height="100" as="geometry" />
        </mxCell>
        <mxCell id="YYEzJ4jG1MICTZC7Yan9-17" value="K2" style="swimlane;whiteSpace=wrap;html=1;" vertex="1" parent="1">
          <mxGeometry x="280" y="410" width="100" height="80" as="geometry" />
        </mxCell>
        <mxCell id="YYEzJ4jG1MICTZC7Yan9-18" value="Значение&lt;font style=&quot;&quot; color=&quot;#000000&quot;&gt; =&amp;nbsp; ...&lt;/font&gt;" style="text;html=1;align=left;verticalAlign=middle;whiteSpace=wrap;rounded=0;fontStyle=1;fontColor=#CC0066;" vertex="1" parent="YYEzJ4jG1MICTZC7Yan9-17">
          <mxGeometry x="10" y="30" width="90" height="30" as="geometry" />
        </mxCell>
        <mxCell id="YYEzJ4jG1MICTZC7Yan9-19" value="Метки&lt;font style=&quot;&quot; color=&quot;#000000&quot;&gt; =&amp;nbsp; [&lt;/font&gt;&lt;span style=&quot;background-color: initial; color: rgb(0, 0, 0);&quot;&gt;]&lt;/span&gt;" style="text;html=1;align=left;verticalAlign=middle;whiteSpace=wrap;rounded=0;fontStyle=1;fontColor=#CC0066;" vertex="1" parent="YYEzJ4jG1MICTZC7Yan9-17">
          <mxGeometry x="10" y="50" width="90" height="30" as="geometry" />
        </mxCell>
        <mxCell id="YYEzJ4jG1MICTZC7Yan9-20" value="K3" style="swimlane;whiteSpace=wrap;html=1;" vertex="1" parent="1">
          <mxGeometry x="390" y="410" width="100" height="120" as="geometry" />
        </mxCell>
        <mxCell id="YYEzJ4jG1MICTZC7Yan9-21" value="Значение&lt;font style=&quot;&quot; color=&quot;#000000&quot;&gt; =&amp;nbsp; ...&lt;/font&gt;" style="text;html=1;align=left;verticalAlign=middle;whiteSpace=wrap;rounded=0;fontStyle=1;fontColor=#CC0066;" vertex="1" parent="YYEzJ4jG1MICTZC7Yan9-20">
          <mxGeometry x="10" y="30" width="90" height="30" as="geometry" />
        </mxCell>
        <mxCell id="YYEzJ4jG1MICTZC7Yan9-22" value="Метки&lt;font style=&quot;&quot; color=&quot;#000000&quot;&gt; =&amp;nbsp; [&lt;br&gt;&lt;/font&gt;&lt;font style=&quot;&quot; color=&quot;#000000&quot;&gt;&amp;nbsp; &amp;nbsp;#K4&lt;/font&gt;&lt;span style=&quot;color: rgb(0, 0, 0);&quot;&gt;=&lt;/span&gt;&lt;font color=&quot;#ff0000&quot;&gt;1&lt;/font&gt;&lt;font style=&quot;&quot; color=&quot;#000000&quot;&gt;,&lt;/font&gt;&lt;div&gt;&lt;font style=&quot;&quot; color=&quot;#000000&quot;&gt;&amp;nbsp; &amp;nbsp;#K5&lt;/font&gt;&lt;span style=&quot;color: rgb(0, 0, 0); background-color: initial;&quot;&gt;=&lt;/span&gt;&lt;span style=&quot;background-color: initial;&quot;&gt;&lt;font color=&quot;#ff0000&quot;&gt;1&lt;/font&gt;&lt;br&gt;&lt;/span&gt;&lt;span style=&quot;color: rgb(0, 0, 0); background-color: initial;&quot;&gt;]&lt;/span&gt;&lt;/div&gt;" style="text;html=1;align=left;verticalAlign=middle;whiteSpace=wrap;rounded=0;fontStyle=1;fontColor=#CC0066;" vertex="1" parent="YYEzJ4jG1MICTZC7Yan9-20">
          <mxGeometry x="10" y="50" width="90" height="70" as="geometry" />
        </mxCell>
        <mxCell id="YYEzJ4jG1MICTZC7Yan9-23" value="K4" style="swimlane;whiteSpace=wrap;html=1;" vertex="1" parent="1">
          <mxGeometry x="500" y="410" width="100" height="80" as="geometry" />
        </mxCell>
        <mxCell id="YYEzJ4jG1MICTZC7Yan9-24" value="Значение&lt;font style=&quot;&quot; color=&quot;#000000&quot;&gt; =&amp;nbsp; ...&lt;/font&gt;" style="text;html=1;align=left;verticalAlign=middle;whiteSpace=wrap;rounded=0;fontStyle=1;fontColor=#CC0066;" vertex="1" parent="YYEzJ4jG1MICTZC7Yan9-23">
          <mxGeometry x="10" y="30" width="90" height="30" as="geometry" />
        </mxCell>
        <mxCell id="YYEzJ4jG1MICTZC7Yan9-25" value="Метки&lt;font style=&quot;&quot; color=&quot;#000000&quot;&gt; =&amp;nbsp; [&lt;/font&gt;&lt;span style=&quot;background-color: initial; color: rgb(0, 0, 0);&quot;&gt;]&lt;/span&gt;" style="text;html=1;align=left;verticalAlign=middle;whiteSpace=wrap;rounded=0;fontStyle=1;fontColor=#CC0066;" vertex="1" parent="YYEzJ4jG1MICTZC7Yan9-23">
          <mxGeometry x="10" y="50" width="90" height="30" as="geometry" />
        </mxCell>
        <mxCell id="YYEzJ4jG1MICTZC7Yan9-26" value="K5" style="swimlane;whiteSpace=wrap;html=1;" vertex="1" parent="1">
          <mxGeometry x="610" y="410" width="100" height="80" as="geometry" />
        </mxCell>
        <mxCell id="YYEzJ4jG1MICTZC7Yan9-27" value="Значение&lt;font style=&quot;&quot; color=&quot;#000000&quot;&gt; =&amp;nbsp; ...&lt;/font&gt;" style="text;html=1;align=left;verticalAlign=middle;whiteSpace=wrap;rounded=0;fontStyle=1;fontColor=#CC0066;" vertex="1" parent="YYEzJ4jG1MICTZC7Yan9-26">
          <mxGeometry x="10" y="30" width="90" height="30" as="geometry" />
        </mxCell>
        <mxCell id="YYEzJ4jG1MICTZC7Yan9-28" value="Метки&lt;font style=&quot;&quot; color=&quot;#000000&quot;&gt; =&amp;nbsp; [&lt;/font&gt;&lt;span style=&quot;background-color: initial; color: rgb(0, 0, 0);&quot;&gt;]&lt;/span&gt;" style="text;html=1;align=left;verticalAlign=middle;whiteSpace=wrap;rounded=0;fontStyle=1;fontColor=#CC0066;" vertex="1" parent="YYEzJ4jG1MICTZC7Yan9-26">
          <mxGeometry x="10" y="50" width="90" height="30" as="geometry" />
        </mxCell>
        <mxCell id="YYEzJ4jG1MICTZC7Yan9-31" value="#K1" style="swimlane;whiteSpace=wrap;html=1;" vertex="1" parent="1">
          <mxGeometry x="170" y="570" width="100" height="60" as="geometry" />
        </mxCell>
        <mxCell id="YYEzJ4jG1MICTZC7Yan9-32" value="&lt;font color=&quot;#ff0000&quot;&gt;1&lt;/font&gt;" style="text;html=1;align=left;verticalAlign=middle;whiteSpace=wrap;rounded=0;fontStyle=1;fontColor=#CC0066;" vertex="1" parent="YYEzJ4jG1MICTZC7Yan9-31">
          <mxGeometry x="10" y="30" width="80" height="30" as="geometry" />
        </mxCell>
        <mxCell id="YYEzJ4jG1MICTZC7Yan9-34" value="#K2" style="swimlane;whiteSpace=wrap;html=1;" vertex="1" parent="1">
          <mxGeometry x="280" y="570" width="100" height="60" as="geometry" />
        </mxCell>
        <mxCell id="YYEzJ4jG1MICTZC7Yan9-35" value="&lt;font color=&quot;#ff0000&quot;&gt;1&lt;/font&gt;" style="text;html=1;align=left;verticalAlign=middle;whiteSpace=wrap;rounded=0;fontStyle=1;fontColor=#CC0066;" vertex="1" parent="YYEzJ4jG1MICTZC7Yan9-34">
          <mxGeometry x="10" y="30" width="80" height="30" as="geometry" />
        </mxCell>
        <mxCell id="YYEzJ4jG1MICTZC7Yan9-36" value="#K3" style="swimlane;whiteSpace=wrap;html=1;" vertex="1" parent="1">
          <mxGeometry x="390" y="570" width="100" height="60" as="geometry" />
        </mxCell>
        <mxCell id="YYEzJ4jG1MICTZC7Yan9-37" value="&lt;font color=&quot;#ff0000&quot;&gt;1&lt;/font&gt;" style="text;html=1;align=left;verticalAlign=middle;whiteSpace=wrap;rounded=0;fontStyle=1;fontColor=#CC0066;" vertex="1" parent="YYEzJ4jG1MICTZC7Yan9-36">
          <mxGeometry x="10" y="30" width="80" height="30" as="geometry" />
        </mxCell>
        <mxCell id="YYEzJ4jG1MICTZC7Yan9-39" value="#K4" style="swimlane;whiteSpace=wrap;html=1;" vertex="1" parent="1">
          <mxGeometry x="500" y="570" width="100" height="60" as="geometry" />
        </mxCell>
        <mxCell id="YYEzJ4jG1MICTZC7Yan9-40" value="&lt;font color=&quot;#ff0000&quot;&gt;1&lt;/font&gt;" style="text;html=1;align=left;verticalAlign=middle;whiteSpace=wrap;rounded=0;fontStyle=1;fontColor=#CC0066;" vertex="1" parent="YYEzJ4jG1MICTZC7Yan9-39">
          <mxGeometry x="10" y="30" width="80" height="30" as="geometry" />
        </mxCell>
        <mxCell id="YYEzJ4jG1MICTZC7Yan9-42" value="#K5" style="swimlane;whiteSpace=wrap;html=1;" vertex="1" parent="1">
          <mxGeometry x="610" y="570" width="100" height="60" as="geometry" />
        </mxCell>
        <mxCell id="YYEzJ4jG1MICTZC7Yan9-43" value="&lt;font color=&quot;#ff0000&quot;&gt;1&lt;/font&gt;" style="text;html=1;align=left;verticalAlign=middle;whiteSpace=wrap;rounded=0;fontStyle=1;fontColor=#CC0066;" vertex="1" parent="YYEzJ4jG1MICTZC7Yan9-42">
          <mxGeometry x="10" y="30" width="80" height="30" as="geometry" />
        </mxCell>
      </root>
    </mxGraphModel>
  </diagram>
</mxfile>
